<svg aria-hidden="true" style="position: absolute; width: 0; height: 0; overflow: hidden;" version="1.1" xmlns="http://www.w3.org/2000/svg" xmlns:xlink="http://www.w3.org/1999/xlink">
<defs>
<symbol id="icon-crop" viewBox="0 0 32 32">
<path d="M26 8l6-6-2-2-6 6h-14v-6h-4v6h-6v4h6v16h16v6h4v-6h6v-4h-6v-14zM10 10h10l-10 10v-10zM12 22l10-10v10h-10z"></path>
</symbol>
<symbol id="icon-make-group" viewBox="0 0 32 32">
<path d="M10 4h-4c-1.1 0-2 0.9-2 2v4c0 1.1 0.9 2 2 2h4c1.1 0 2-0.9 2-2v-4c0-1.1-0.9-2-2-2z"></path>
<path d="M22 12h4c1.1 0 2-0.9 2-2v-4c0-1.1-0.9-2-2-2h-4c-1.1 0-2 0.9-2 2v4c0 1.1 0.9 2 2 2zM22 6h4v4h-4v-4z"></path>
<path d="M10 20h-4c-1.1 0-2 0.9-2 2v4c0 1.1 0.9 2 2 2h4c1.1 0 2-0.9 2-2v-4c0-1.1-0.9-2-2-2zM10 26h-4v-4h4v4z"></path>
<path d="M26 20h-4c-1.1 0-2 0.9-2 2v4c0 1.1 0.9 2 2 2h4c1.1 0 2-0.9 2-2v-4c0-1.1-0.9-2-2-2z"></path>
<path d="M28 16h-2c-2.671 0-5.182-1.040-7.071-2.929s-2.929-4.4-2.929-7.071v-2c0-2.2-1.8-4-4-4h-8c-2.2 0-4 1.8-4 4v8c0 2.2 1.8 4 4 4h2c2.671 0 5.182 1.040 7.071 2.929s2.929 4.4 2.929 7.071v2c0 2.2 1.8 4 4 4h8c2.2 0 4-1.8 4-4v-8c0-2.2-1.8-4-4-4zM30 28c0 0.53-0.209 1.031-0.589 1.411s-0.881 0.589-1.411 0.589h-8c-0.53 0-1.031-0.209-1.411-0.589s-0.589-0.881-0.589-1.411v-2c0-6.627-5.373-12-12-12h-2c-0.53 0-1.031-0.209-1.411-0.589s-0.589-0.881-0.589-1.411v-8c0-0.53 0.209-1.031 0.589-1.411s0.881-0.589 1.411-0.589h8c0.53 0 1.031 0.209 1.411 0.589s0.589 0.881 0.589 1.411v2c0 6.627 5.373 12 12 12h2c0.53 0 1.031 0.209 1.411 0.589s0.589 0.881 0.589 1.411v8z"></path>
</symbol>
<symbol id="icon-omega" viewBox="0 0 32 32">
<path d="M22 28h8l2-4v8h-12v-6.694c4.097-1.765 7-6.161 7-11.306 0-6.701-4.925-11.946-11-11.946s-11 5.245-11 11.946c0 5.144 2.903 9.541 7 11.306v6.694h-12v-8l2 4h8v-1.018c-5.863-2.077-10-7.106-10-12.982 0-7.732 7.163-14 16-14s16 6.268 16 14c0 5.875-4.137 10.905-10 12.982v1.018z"></path>
</symbol>
</defs>
</svg>
